<svg width="1453" height="875" viewBox="0 0 1453 875" fill="none" xmlns="http://www.w3.org/2000/svg">
<g clip-path="url(#clip0_24_2)">
<path fill-rule="evenodd" clip-rule="evenodd" d="M0 55C0 50.163 0.624398 45.4719 1.79699 41.0028L38.8951 2.39548C43.9887 0.837986 49.3965 0 55 0H1374.31C1367.25 8.55847 1363 19.5333 1363 31.5C1363 58.8381 1385.16 81 1412.5 81C1429.24 81 1444.04 72.689 1453 59.9677V820C1453 823.168 1452.73 826.274 1452.22 829.295L1411.24 873.396C1407 874.444 1402.56 875 1398 875H55C51.1501 875 47.3926 874.604 43.766 873.852L0.341845 826.167C0.115982 824.142 0 822.085 0 820V55Z" fill="#66BCED" fill-opacity="0.5"/>
<path fill-rule="evenodd" clip-rule="evenodd" d="M27.7442 14H1366.18C1366.44 13.3174 1366.71 12.642 1367 11.9742V8H33.5096L27.7442 14Z" fill="#6A87EA"/>
<path fill-rule="evenodd" clip-rule="evenodd" d="M17.1742 25H1363.42C1363.69 22.9582 1364.08 20.9556 1364.59 19H22.9396L17.1742 25Z" fill="#6A87EA"/>
<path fill-rule="evenodd" clip-rule="evenodd" d="M1429.26 854H25.6881L31.152 860H1423.69L1429.26 854Z" fill="#6A87EA"/>
<path fill-rule="evenodd" clip-rule="evenodd" d="M1419.97 864H34.7946L40.2584 870H1414.39L1419.97 864Z" fill="#6A87EA"/>
<rect x="1441" y="69" width="6" height="768" fill="#6A87EA"/>
<rect x="1432" y="76" width="6" height="768" fill="#6A87EA"/>
<rect x="1422" y="81" width="6" height="774" fill="#6A87EA"/>
</g>
<defs>
<clipPath id="clip0_24_2">
<rect width="1453" height="875" fill="white"/>
</clipPath>
</defs>
</svg>
