<svg width="1453" height="49" viewBox="0 0 1453 49" fill="none" xmlns="http://www.w3.org/2000/svg">
<g clip-path="url(#clip0_28_97)">
<path fill-rule="evenodd" clip-rule="evenodd" d="M0 -771C0 -775.837 0.624398 -780.528 1.79699 -784.997L38.8951 -823.605C43.9887 -825.162 49.3965 -826 55 -826H1374.31C1367.25 -817.442 1363 -806.467 1363 -794.5C1363 -767.162 1385.16 -745 1412.5 -745C1429.24 -745 1444.04 -753.311 1453 -766.032V-6C1453 -2.83191 1452.73 0.273682 1452.22 3.29523L1411.24 47.3961C1407 48.444 1402.56 49 1398 49H55C51.1501 49 47.3926 48.6044 43.766 47.8517L0.341845 0.166687C0.115982 -1.85773 0 -3.91534 0 -6V-771Z" fill="#66BCED" fill-opacity="0.5"/>
<path fill-rule="evenodd" clip-rule="evenodd" d="M1429.26 28H25.6881L31.152 34H1423.69L1429.26 28Z" fill="#6A87EA"/>
<path fill-rule="evenodd" clip-rule="evenodd" d="M1419.97 38H34.7946L40.2584 44H1414.39L1419.97 38Z" fill="#6A87EA"/>
<rect x="1441" y="-757" width="6" height="768" fill="#6A87EA"/>
<rect x="1432" y="-750" width="6" height="768" fill="#6A87EA"/>
<rect x="1422" y="-745" width="6" height="774" fill="#6A87EA"/>
</g>
<defs>
<clipPath id="clip0_28_97">
<rect width="1453" height="49" fill="white"/>
</clipPath>
</defs>
</svg>
