<svg width="32" height="796" viewBox="0 0 32 796" fill="none" xmlns="http://www.w3.org/2000/svg">
<g clip-path="url(#clip0_28_128)">
<path fill-rule="evenodd" clip-rule="evenodd" d="M-1421 -8.99999C-1421 -13.837 -1420.38 -18.5281 -1419.2 -22.9972L-1382.1 -61.6045C-1377.01 -63.162 -1371.6 -64 -1366 -64H-46.6855C-53.7537 -55.4415 -58 -44.4667 -58 -32.5C-58 -5.1619 -35.8381 17 -8.5 17C8.24146 17 23.0417 8.68897 32 -4.03227V756C32 759.168 31.7321 762.274 31.2178 765.295L-9.76074 809.396C-14.0013 810.444 -18.4357 811 -23 811H-1366C-1369.85 811 -1373.61 810.604 -1377.23 809.852L-1420.66 762.167C-1420.88 760.142 -1421 758.085 -1421 756V-8.99999Z" fill="#66BCED" fill-opacity="0.5"/>
<path fill-rule="evenodd" clip-rule="evenodd" d="M8.26196 790H-1395.31L-1389.85 796H2.68677L8.26196 790Z" fill="#6A87EA"/>
<rect x="20" y="5" width="6" height="768" fill="#6A87EA"/>
<rect x="11" y="12" width="6" height="768" fill="#6A87EA"/>
<rect x="1" y="17" width="6" height="774" fill="#6A87EA"/>
</g>
<defs>
<clipPath id="clip0_28_128">
<rect width="32" height="796" fill="white"/>
</clipPath>
</defs>
</svg>
