<svg width="157" height="158" viewBox="0 0 157 158" fill="none" xmlns="http://www.w3.org/2000/svg">
<path fill-rule="evenodd" clip-rule="evenodd" d="M113.299 8.06845C102.178 2.20518 89.6826 -0.550662 77.1275 0.0911825L77.6857 11.0091C88.2772 10.4677 98.8187 12.7925 108.2 17.7388L113.299 8.06845ZM156.128 73.5106C155.559 61.8907 152.706 50.4968 147.732 39.9795C142.759 29.4622 135.763 20.0274 127.143 12.2139L117.838 22.4789C125.11 29.0705 131.012 37.0297 135.207 45.9022C139.403 54.7747 141.809 64.3866 142.29 74.1893L156.128 73.5106ZM75.7601 135.466C108.621 135.466 135.26 109.275 135.26 76.9662C135.26 44.6575 108.621 18.4662 75.7601 18.4662C42.8991 18.4662 16.2601 44.6575 16.2601 76.9662C16.2601 109.275 42.8991 135.466 75.7601 135.466ZM75.7601 126.317C48.0383 126.317 25.5654 104.222 25.5654 76.9662C25.5654 49.7103 48.0383 27.6151 75.7601 27.6151C103.482 27.6151 125.955 49.7103 125.955 76.9662C125.955 104.222 103.482 126.317 75.7601 126.317ZM0.00109483 76.8852C-0.0459051 69.2026 1.42077 61.5858 4.31739 54.47L12.7917 57.9196C10.3481 63.9226 9.1108 70.3481 9.15045 76.8293C9.1901 83.3104 10.5059 89.7203 13.0228 95.693L4.59131 99.246C1.60785 92.1661 0.0480948 84.5679 0.00109483 76.8852ZM121.418 140.285C129.143 135.404 135.831 129.049 141.101 121.584C146.37 114.119 150.117 105.688 152.129 96.7746L141.513 94.3793C139.816 101.899 136.655 109.011 132.21 115.309C127.765 121.607 122.122 126.967 115.605 131.085L121.418 140.285ZM85.0638 118.647C79.6619 120.4 73.9678 121.071 68.3065 120.623L68.8402 113.881C73.6161 114.259 78.4198 113.693 82.9769 112.214C87.5339 110.736 91.7552 108.374 95.3997 105.265L99.7896 110.409C95.4695 114.096 90.4657 116.895 85.0638 118.647ZM32.8914 93.9765C33.9019 97.0695 35.5118 99.9331 37.6291 102.404C39.7463 104.875 42.3295 106.904 45.2311 108.377L46.9847 104.921C44.5369 103.679 42.3577 101.967 40.5715 99.8824C38.7854 97.798 37.4273 95.3823 36.5748 92.7731L32.8914 93.9765ZM100.688 39.542C103.409 41.3263 105.752 43.629 107.583 46.3187L104.379 48.4994C102.835 46.2303 100.858 44.2877 98.5627 42.7825C96.2672 41.2773 93.6977 40.239 91.001 39.7268L91.724 35.9198C94.9207 36.5269 97.9665 37.7578 100.688 39.542ZM63.2217 157.035C47.4695 153.974 32.8341 146.722 20.8571 136.043L30.1441 125.628C40.248 134.637 52.5945 140.755 65.8831 143.337L63.2217 157.035ZM29.451 15.3091C37.9422 9.22738 47.5482 4.87768 57.7204 2.50835L60.5421 14.6225C51.9607 16.6213 43.857 20.2908 36.6938 25.4213C29.5305 30.5519 23.4479 37.0432 18.7933 44.5245L8.2321 37.9537C13.7496 29.0855 20.9598 21.3908 29.451 15.3091Z" fill="#0094FF" fill-opacity="0.64"/>
</svg>
